# AST/ASF file generated using VICON BodyLanguage
# -----------------------------------------------
:version 1.10
:name VICON
:units
  mass 1.0
  length 0.45
  angle deg
:documentation
   .ast/.asf automatically generated from VICON data using
   VICON BodyBuilder and BodyLanguage model FoxedUp or BRILLIANT.MOD
:root
   order TX TY TZ RX RY RZ
   axis XYZ
   position 0 0 0  
   orientation 0 0 0 
:bonedata
  begin
     id 1 
     name lhipjoint
     direction 0.78388 -0.462562 0.414208 
     length 3.01181 
     axis 0 0 0  XYZ
  end
  begin
     id 2 
     name lfemur
     direction 0.34202 -0.939693 0  
     length 6.04673  
     axis 0 0 20  XYZ
    dof rx ry rz
    limits (-160.0 20.0)
           (-70.0 70.0)
           (-60.0 70.0)
  end
  begin
     id 3 
     name ltibia
     direction 0.34202 -0.939693 0   
     length 7.211   
     axis 0 0 20   XYZ
    dof rx
    limits (-10.0 170.0)
  end
  begin
     id 4 
     name lfoot
     direction 0.121887 -0.334882 0.934344   
     length 2.13567   
     axis -90 7.62852e-016 20   XYZ
    dof rx rz
    limits (-45.0 90.0)
           (-70.0 20.0)
  end
  begin
     id 5 
     name ltoes
     direction 1.53555e-011 -4.2179e-011 1   
     length 1.05957   
     axis -90 7.62852e-016 20   XYZ
    dof rx
    limits (-90.0 20.0)
  end
  begin
     id 6 
     name rhipjoint
     direction -0.769387 -0.475875 0.426129   
     length 2.92756  
     axis 0 0 0  XYZ 
  end
  begin
     id 7 
     name rfemur
     direction -0.34202 -0.939693 0   
     length 6.35468   
     axis 0 0 -20   XYZ
    dof rx ry rz
    limits (-160.0 20.0)
           (-70.0 70.0)
           (-70.0 60.0)
  end
  begin
     id 8 
     name rtibia
     direction -0.34202 -0.939693 0   
     length 7.37886   
     axis 0 0 -20   XYZ
    dof rx
    limits (-10.0 170.0)
 end
 begin
     id 9 
     name rfoot
     direction -0.101763 -0.279592 0.954711   
     length 2.21478  
     axis -90 -7.62852e-016 -20   XYZ
    dof rx rz
    limits (-45.0 90.0)
           (-20.0 70.0)
  end
  begin
     id 10 
     name rtoes
     direction -1.53494e-011 -4.21851e-011 1   
     length 1.10506   
     axis -90 -7.62852e-016 -20   XYZ
    dof rx
    limits (-90.0 20.0)
  end
  begin
     id 11 
     name lowerback
     direction 0.00747405 0.999267 0.0375481   
     length 2.13259   
     axis 0 0 0   XYZ
    dof rx ry rz
    limits (-20.0 45.0)
           (-30.0 30.0)
           (-30.0 30.0)
  end
  begin
     id 12 
     name upperback
     direction 0.00661626 0.996177 0.0871029   
     length 2.10528   
     axis 0 0 0   XYZ
    dof rx ry rz
    limits (-20.0 45.0)
           (-30.0 30.0)
           (-30.0 30.0)
  end
  begin
     id 13 
     name thorax
     direction 0.00320659 0.997679 0.0680167   
     length 2.11338   
     axis 0 0 0   XYZ
    dof rx ry rz
    limits (-20.0 45.0)
           (-30.0 30.0)
           (-30.0 30.0)
  end
  begin
     id 14 
     name lowerneck
     direction 0.0374841 0.973033 0.227602   
     length 1.42765   
     axis 0 0 0   XYZ
    dof rx ry rz
    limits (-20.0 45.0)
           (-30.0 30.0)
           (-30.0 30.0)
  end
  begin
     id 15 
     name upperneck
     direction 0.00481585 0.989155 -0.146795   
     length 1.47593   
     axis 0 0 0   XYZ
    dof rx ry rz
    limits (-20.0 45.0)
           (-30.0 30.0)
           (-30.0 30.0)
  end
  begin
     id 16
     name head
     direction -0.00292522 0.997206 -0.0746423  
     length 1.48116  
     axis 0 0 0   XYZ
    dof rx ry rz
    limits (-20.0 45.0)
           (-30.0 30.0)
           (-30.0 30.0)
  end
  begin
     id 17 
     name lclavicle
     direction 0.951444 0.305606 0.0368784  
     length 3.01855  
     axis 0 0 0   XYZ
    dof ry rz
    limits (-20.0 10.0)
           (0.0 20.0)
  end
  begin
     id 18 
     name lhumerus
     direction 1 -4.48977e-011 2.61664e-027   
     length 5.52731   
     axis 180 -30 -90   XYZ
    dof rx ry rz
    limits (-60.0 90.0)
           (-90.0 90.0)
           (-90.0 90.0)
  end
  begin
     id 19
     name lradius
     direction 1 -4.48944e-011 8.22157e-027   
     length 3.11059   
     axis 180 -30 -90   XYZ
    dof rx
    limits (-10.0 170.0)
  end
  begin
     id 20
     name lwrist
     direction 1 -4.48976e-011 1.5779e-026   
     length 1.5553   
     axis -1.15221e-014 90 90   XYZ
    dof ry
    limits (-180.0 0.0)
 end
  begin
     id 21 
     name lhand
     direction 1 -4.49025e-011 3.1558e-026   
     length 0.419626   
     axis -2.01367e-014 90 90   XYZ
    dof rx rz
    limits (-90.0 90.0)
           (-45.0 45.0)
  end
  begin
     id 22 
     name lfingers
     direction 1 -4.4904e-011 6.31161e-026   
     length 0.338313   
     axis -4.02734e-014 90 90   XYZ
    dof rx
    limits (0.0 90.0)
  end
  begin
     id 23
     name lthumb
     direction 0.707107 -6.35004e-011 0.707107   
     length 0.485752   
     axis -90 45 2.85299e-015   XYZ
    dof rx rz
    limits (-45.0 45.0)
           (-45.0 45.0)
  end
  begin
     id 24 
     name rclavicle
     direction -0.968876 0.223791 0.105816   
     length 3.04177  
     axis 0 0 0   XYZ 
    dof ry rz
    limits (-10.0 20.0)
           (-20.0 0.0)
  end
  begin
     id 25 
     name rhumerus
     direction -1 -4.48962e-011 -1.01384e-027  
     length 5.25396   
     axis 180 30 90   XYZ
    dof rx ry rz
    limits (-90.0 60.0)
           (-90.0 90.0)
           (-90.0 90.0)
  end
  begin
     id 26 
     name rradius
     direction -1 -4.48955e-011 8.88542e-027   
     length 3.10567   
     axis 180 30 90   XYZ
    dof rx
    limits (-10.0 170.0)
  end
  begin
     id 27 
     name rwrist
     direction -1 -4.48994e-011 1.5779e-026   
     length 1.55283   
     axis -1.15221e-014 -90 -90   XYZ
    dof ry
    limits (-180.0 0.0)
  end
  begin
     id 28
     name rhand
     direction -1 -4.48891e-011 3.1558e-026   
     length 0.498676   
     axis -2.01367e-014 -90 -90   XYZ
    dof rx rz
    limits (-90.0 90.0)
           (-45.0 45.0)
  end
  begin
     id 29
     name rfingers
     direction -1 -4.48972e-011 6.31161e-026   
     length 0.402045   
     axis -4.02734e-014 -90 -90   XYZ
    dof rx
    limits (0.0 90.0)
  end
  begin
     id 30
     name rthumb
     direction -0.707107 -6.34849e-011 0.707107   
     length 0.577259   
     axis -90 -45 -2.85299e-015   XYZ
    dof rx rz
    limits (-45.0 45.0)
           (-45.0 45.0)
  end
:hierarchy
  begin
    root lhipjoint rhipjoint lowerback
    lhipjoint lfemur
    lfemur ltibia
    ltibia lfoot
    lfoot ltoes
    rhipjoint rfemur
    rfemur rtibia
    rtibia rfoot
    rfoot rtoes
    lowerback upperback
    upperback thorax
    thorax lowerneck lclavicle rclavicle
    lowerneck upperneck
    upperneck head
    lclavicle lhumerus
    lhumerus lradius
    lradius lwrist
    lwrist lhand lthumb
    lhand lfingers
    rclavicle rhumerus
    rhumerus rradius
    rradius rwrist
    rwrist rhand rthumb
    rhand rfingers
  end

#!OML:ASF H:\Pregnant\Project 1\Capture day 1\Session 1\femalepreg.ASF
:FULLY-SPECIFIED
:DEGREES
242
root -8.32427 15.4717 9.63805 -157.221 10.8982 -174.129
lowerback -18.7937 2.16499 10.0187
upperback -0.689818 0.859321 2.28961
thorax 9.92806 0.974173 -2.90653
lowerneck -14.9294 5.37606 8.49096
upperneck 28.9529 12.8999 -14.5185
head 13.9115 5.7232 -4.85293
rclavicle 1.83876e-014 2.54444e-014
rhumerus -18.9478 19.0693 -93.1037
rradius 32.1879
rwrist -9.68854
rhand -19.768 -20.8097
rfingers 7.12502
rthumb 6.56383 -50.6879
lclavicle 1.83876e-014 2.54444e-014
lhumerus -30.4792 -22.3365 87.7083
lradius 33.1112
lwrist 36.5429
lhand -24.6374 -1.65001
lfingers 7.12502
lthumb 1.86179 28.3216
rfemur -19.255 17.1094 30.7813
rtibia 27.7748
rfoot -22.309 7.13841
rtoes 4.99664
lfemur -55.5984 -14.0907 -1.0583
ltibia 17.3592
lfoot -1.85373 17.8262
ltoes -18.3749
243
root -8.3203 15.4651 9.50349 -157.033 11.44 -173.774
lowerback -19.0392 2.31357 9.92906
upperback -0.816785 1.06934 2.17166
thorax 9.94903 1.07124 -2.92581
lowerneck -14.8459 5.36088 8.42679
upperneck 28.9445 12.7038 -14.1136
head 13.8129 5.66543 -4.7153
rclavicle -1.56046e-014 -5.04913e-014
rhumerus -19.6757 21.1697 -93.8305
rradius 33.184
rwrist -9.14639
rhand -19.5235 -20.5759
rfingers 7.12502
rthumb 6.79981 -50.4467
lclavicle -1.56046e-014 -5.04913e-014
lhumerus -30.4812 -22.5201 87.9009
lradius 32.0384
lwrist 36.1836
lhand -24.6275 -1.16185
lfingers 7.12502
lthumb 1.87136 28.8097
rfemur -18.4812 17.4457 30.9623
rtibia 27.1109
rfoot -22.0207 7.58662
rtoes 4.90145
lfemur -55.7301 -13.4534 -1.35356
ltibia 18.6983
lfoot -1.21623 17.2484
ltoes -18.3158
244
root -8.31485 15.464 9.36672 -156.839 11.9723 -173.449
lowerback -19.3149 2.4564 9.78935
upperback -0.948889 1.28084 2.04198
thorax 9.98016 1.16722 -2.92782
lowerneck -14.7618 5.33666 8.38704
upperneck 28.9449 12.4891 -13.7036
head 13.7184 5.60337 -4.5844
rclavicle -3.79679e-014 -9.54166e-015
rhumerus -20.4473 23.1002 -94.532
rradius 34.1989
rwrist -8.33736
rhand -19.0895 -20.1044
rfingers 7.12502
rthumb 7.2188 -49.9613
lclavicle -3.79679e-014 -9.54166e-015
lhumerus -30.4859 -22.619 88.0705
lradius 30.998
lwrist 35.7293
lhand -24.5897 -0.512516
lfingers 7.12502
lthumb 1.90779 29.4587
rfemur -17.6715 17.8335 31.1057
rtibia 26.3703
rfoot -21.6601 7.96453
rtoes 4.59693
lfemur -55.9155 -12.9297 -1.53325
ltibia 19.9546
lfoot -0.295443 16.9013
ltoes -18.1848
245
root -8.30984 15.466 9.22841 -156.651 12.4538 -173.195
lowerback -19.6161 2.58134 9.59257
upperback -1.07966 1.47991 1.88595
thorax 10.0242 1.25525 -2.92864
lowerneck -14.7057 5.30751 8.40941
upperneck 28.9665 12.2657 -13.3218
head 13.6468 5.5405 -4.47822
rclavicle 1.27719e-014 4.17448e-014
rhumerus -21.2347 24.8344 -95.2001
rradius 35.2091
rwrist -7.29628
rhand -18.5058 -19.3475
rfingers 7.12502
rthumb 7.78213 -49.1842
lclavicle 1.27719e-014 4.17448e-014
lhumerus -30.4731 -22.6545 88.2114
lradius 29.9916
lwrist 35.2093
lhand -24.5593 0.177413
lfingers 7.12502
lthumb 1.93715 30.1484
rfemur -16.8917 18.2337 31.1832
rtibia 25.668
rfoot -21.2795 8.23736
rtoes 4.06791
lfemur -56.0881 -12.5244 -1.67364
ltibia 21.0285
lfoot 0.848486 16.6752
ltoes -17.9974
246
root -8.30551 15.4686 9.08959 -156.492 12.864 -173.058
lowerback -19.9423 2.66679 9.29595
upperback -1.19706 1.64635 1.70066
thorax 10.0906 1.32393 -2.91314
lowerneck -14.6996 5.27555 8.47725
upperneck 29.0127 12.0374 -12.965
head 13.6031 5.47565 -4.39088
rclavicle 9.93923e-016 -1.70955e-014
rhumerus -22.0093 26.3451 -95.818
rradius 36.1947
rwrist -6.0338
rhand -17.8107 -18.3375
rfingers 7.12502
rthumb 8.45299 -48.1483
lclavicle 9.93923e-016 -1.70955e-014
lhumerus -30.4206 -22.6116 88.3163
lradius 29.0193
lwrist 34.64
lhand -24.5422 0.867463
lfingers 7.12502
lthumb 1.95373 30.8383
rfemur -16.199 18.6229 31.1664
rtibia 25.1247
rfoot -20.9195 8.37334
rtoes 3.31541
lfemur -56.1834 -12.2206 -1.87207
ltibia 21.8777
lfoot 2.11058 16.4435
ltoes -17.8247
247
root -8.30191 15.4702 8.951 -156.384 13.1738 -173.082
lowerback -20.2781 2.69089 8.85855
upperback -1.29774 1.76336 1.48033
thorax 10.1714 1.36298 -2.87019
lowerneck -14.7604 5.24464 8.59882
upperneck 29.089 11.8095 -12.6416
head 13.5949 5.41027 -4.32587
rclavicle 1.57537e-014 2.74323e-014
rhumerus -22.7544 27.6133 -96.3779
rradius 37.1283
rwrist -4.59649
rhand -17.0375 -17.0942
rfingers 7.12502
rthumb 9.19918 -46.8735
lclavicle 1.57537e-014 2.74323e-014
lhumerus -30.3286 -22.5142 88.3915
lradius 28.085
lwrist 34.0777
lhand -24.5756 1.46161
lfingers 7.12502
lthumb 1.92147 31.4327
rfemur -15.6349 18.969 31.0319
rtibia 24.8396
rfoot -20.6196 8.34607
rtoes 2.38501
lfemur -56.1561 -11.9552 -2.28025
ltibia 22.4991
lfoot 3.33881 16.0278
ltoes -17.5531
248
root -8.29646 15.4719 8.81386 -156.32 13.4537 -173.256
lowerback -20.6066 2.66678 8.2426
upperback -1.38545 1.86144 1.22992
thorax 10.2549 1.38473 -2.76461
lowerneck -14.8574 5.20591 8.7118
upperneck 29.1655 11.5577 -12.2979
head 13.5901 5.33343 -4.25479
rclavicle -4.4652e-014 -2.68359e-015
rhumerus -23.4658 28.6416 -96.8798
rradius 37.9885
rwrist -3.04789
rhand -16.278 -15.6515
rfingers 7.12502
rthumb 9.93199 -45.3972
lclavicle -4.4652e-014 -2.68359e-015
lhumerus -30.2083 -22.3768 88.4394
lradius 27.2049
lwrist 33.5667
lhand -24.6552 1.95625
lfingers 7.12502
lthumb 1.84456 31.928
rfemur -15.2306 19.3197 30.778
rtibia 24.8589
rfoot -20.3743 8.18044
rtoes 1.32118
lfemur -55.975 -11.6063 -2.97204
ltibia 22.9287
lfoot 4.42043 15.3703
ltoes -17.1654
249
root -8.28886 15.475 8.67878 -156.323 13.688 -173.584
lowerback -20.8932 2.58072 7.44169
upperback -1.46109 1.92956 0.95149
thorax 10.3195 1.38318 -2.59442
lowerneck -14.9888 5.16108 8.8073
upperneck 29.2427 11.2818 -11.9199
head 13.5873 5.24582 -4.17053
rclavicle 4.58428e-014 -8.31324e-015
rhumerus -24.1487 29.4546 -97.3321
rradius 38.7613
rwrist -1.45557
rhand -15.5609 -14.1251
rfingers 7.12502
rthumb 10.6237 -43.8365
lclavicle 4.58428e-014 -8.31324e-015
lhumerus -30.0806 -22.2134 88.464
lradius 26.399
lwrist 33.1436
lhand -24.8046 2.31552
lfingers 7.12502
lthumb 1.70024 32.2885
rfemur -14.9604 19.6552 30.4147
rtibia 25.178
rfoot -20.1751 7.87923
rtoes 0.177445
lfemur -55.6534 -11.1593 -3.99238
ltibia 23.2184
lfoot 5.30195 14.4447
ltoes -16.6535
250
root -8.27878 15.4802 8.54663 -156.389 13.8896 -174.04
lowerback -21.0945 2.44133 6.47537
upperback -1.53952 1.98117 0.649683
thorax 10.3265 1.36539 -2.3625
lowerneck -15.1423 5.10995 8.89688
upperneck 29.322 10.9828 -11.5111
head 13.5857 5.15011 -4.07667
rclavicle -1.05604e-015 -1.04362e-014
rhumerus -24.8249 30.0771 -97.7499
rradius 39.4566
rwrist 0.0593855
rhand -14.9151 -12.6409
rfingers 7.12502
rthumb 11.2467 -42.3194
lclavicle -1.05604e-015 -1.04362e-014
lhumerus -29.977 -22.0387 88.4705
lradius 25.6982
lwrist 32.8457
lhand -24.9683 2.66586
lfingers 7.12502
lthumb 1.54223 32.64
rfemur -14.8031 19.9748 29.968
rtibia 25.7559
rfoot -19.9957 7.48404
rtoes -1.04171
lfemur -55.2431 -10.6336 -5.27296
ltibia 23.432
lfoot 5.92223 13.3192
ltoes -16.0658
251
root -8.26625 15.4871 8.41759 -156.512 14.0656 -174.58
lowerback -21.2022 2.26593 5.39118
upperback -1.61962 2.0272 0.326412
thorax 10.2757 1.34007 -2.08986
lowerneck -15.3106 5.04917 8.96901
upperneck 29.3974 10.6512 -11.0534
head 13.5784 5.04333 -3.96557
rclavicle -1.2424e-016 3.57812e-015
rhumerus -25.5089 30.5467 -98.1471
rradius 40.0953
rwrist 1.41032
rhand -14.3856 -11.2844
rfingers 7.12502
rthumb 11.7573 -40.9344
lclavicle -1.2424e-016 3.57812e-015
lhumerus -29.9057 -21.8792 88.4546
lradius 25.125
lwrist 32.7058
lhand -25.1351 3.08513
lfingers 7.12502
lthumb 1.38111 33.0604
rfemur -14.7316 20.2727 29.4768
rtibia 26.5458
rfoot -19.8091 7.03097
rtoes -2.34185
lfemur -54.7806 -10.1062 -6.67628
ltibia 23.6093
lfoot 6.2541 12.1202
ltoes -15.3309
